<svg width="40" height="40" viewBox="0 0 40 40" fill="none" xmlns="http://www.w3.org/2000/svg">
<path d="M0 4C0 1.79086 1.79086 0 4 0H36C38.2091 0 40 1.79086 40 4V36C40 38.2091 38.2091 40 36 40H4C1.79086 40 0 38.2091 0 36V4Z" fill="#F6F7F7"/>
<g clip-path="url(#clip0_7892_80099)">
<path d="M10.5791 29.1582C9.46654 27.4598 8.83389 25.4922 8.74812 23.4637C8.66235 21.4352 9.12665 19.4213 10.0919 17.6351C11.0571 15.8489 12.4873 14.3569 14.2312 13.3171C15.975 12.2773 17.9676 11.7283 19.9979 11.7283C22.0282 11.7283 24.0207 12.2773 25.7646 13.3171C27.5084 14.3569 28.9386 15.8489 29.9039 17.6351C30.8691 19.4213 31.3334 21.4352 31.2476 23.4637C31.1618 25.4922 30.5292 27.4598 29.4166 29.1582H32.569C33.6161 27.0238 34.1024 24.6579 33.9821 22.2835C33.8617 19.9091 33.1387 17.6045 31.8812 15.5869C30.6236 13.5693 28.873 11.9052 26.7943 10.7514C24.7157 9.59761 22.3774 8.99219 20 8.99219C17.6226 8.99219 15.2843 9.59761 13.2057 10.7514C11.127 11.9052 9.37637 13.5693 8.11884 15.5869C6.86131 17.6045 6.1383 19.9091 6.01795 22.2835C5.8976 24.6579 6.38389 27.0238 7.43097 29.1582H10.5791Z" fill="#4A4AF4"/>
<path d="M20.1878 16.3477C18.1374 16.3477 15.7774 17.3152 14.4959 18.3361L15.6642 20.7986C16.6915 19.8589 18.3531 19.0558 19.8503 19.0558C21.2749 19.0558 22.0587 19.53 22.0587 20.4911C22.0587 21.1318 21.5376 21.4991 20.553 21.5888C16.8602 21.9284 13.9897 23.0839 13.9897 25.9181C13.9897 28.167 15.6108 29.5254 18.2784 29.5254C19.0803 29.5265 19.868 29.3139 20.5606 28.9097C21.2531 28.5054 21.8255 27.924 22.2189 27.2251V29.158H25.5464V21.0549C25.5464 17.7081 23.2184 16.3562 20.1878 16.3562V16.3477ZM19.216 26.9261C18.1481 26.9261 17.5479 26.4648 17.5479 25.7088C17.5479 24.1283 19.4701 23.7481 21.9904 23.7481C21.9904 25.4012 20.884 26.9261 19.2138 26.9261H19.216Z" fill="#060809"/>
</g>
<defs>
<clipPath id="clip0_7892_80099">
<rect width="28" height="20.5248" fill="white" transform="translate(6 9)"/>
</clipPath>
</defs>
</svg>
