<svg width="80" height="80" viewBox="0 0 80 80" xmlns="http://www.w3.org/2000/svg">
  <defs>
    <linearGradient id="g" x1="0" y1="0" x2="1" y2="1">
      <stop offset="0" stop-color="#8b6a52"/>
      <stop offset="1" stop-color="#5a3f2e"/>
    </linearGradient>
  </defs>
  <circle cx="40" cy="40" r="40" fill="url(#g)"/>
  <circle cx="40" cy="33" r="14" fill="#e9d6c6"/>
  <path d="M14 74c2-16 13-24 26-24s24 8 26 24a40 40 0 0 1-52 0z" fill="#e9d6c6"/>
  <path d="M22 30c0-13 8-21 18-21s18 8 18 21c0 4-1 7-2 9 0-8-3-14-8-16-3 5-11 8-20 8-2 0-4-.4-6-1z" fill="#3a2820"/>
</svg>
